<svg width="48" height="48" viewBox="0 0 48 48" fill="none" xmlns="http://www.w3.org/2000/svg">
    <path fill-rule="evenodd" clip-rule="evenodd" d="M2.817 12.714C2.9565 14.8155 3.828 16.878 5.433 18.483L19.779 28.5435L29.8395 42.891C31.2465 44.2965 33.003 45.1395 34.83 45.42C31.575 47.07 27.8955 48 24 48C10.7535 48 0 37.2465 0 24C0 19.9215 1.02 16.08 2.817 12.714ZM12.1515 3.1275C15.648 1.137 19.692 0 24 0C37.2465 0 48 10.7535 48 24C48 28.1175 46.9605 31.995 45.129 35.3835C44.8875 33.474 44.0325 31.6275 42.567 30.162L28.215 20.88L18.1605 5.7555C16.494 4.089 14.337 3.213 12.1515 3.1275Z" fill="#FCE303"/>
    <path fill-rule="evenodd" clip-rule="evenodd" d="M42.5578 42.8933C46.0708 39.3803 46.6093 34.2143 42.5578 30.1643C39.4078 27.0143 27.7873 20.6123 27.7873 20.6123C27.7873 20.6123 21.3148 8.9213 18.1513 5.7578C14.6383 2.2448 8.93531 2.2448 5.42381 5.7578C1.91081 9.2693 1.91081 14.9723 5.42381 18.4853C8.58581 21.6473 20.5 28 20.5 28C20.5 28 26.6683 39.7298 29.8303 42.8933C33.3433 46.4048 39.0463 46.4048 42.5578 42.8933Z" stroke="black" stroke-width="2" stroke-miterlimit="1.5" stroke-linecap="round" stroke-linejoin="round"/>
    <path fill-rule="evenodd" clip-rule="evenodd" d="M39.3769 39.6933C41.1334 37.9383 41.1334 35.0868 39.3769 33.3303C36.8089 30.7608 25.0639 23.2593 25.0639 23.2593C25.0639 23.2593 17.5624 11.5143 14.9929 8.94628C13.2379 7.18978 10.3849 7.18978 8.62988 8.94628C6.87337 10.7028 6.87337 13.5543 8.62988 15.3093C11.4154 18.0963 23.3689 24.9543 23.3689 24.9543C23.3689 24.9543 30.2749 37.3083 33.0139 39.6933C34.8859 41.3253 37.6219 41.4498 39.3769 39.6933V39.6933Z" stroke="black" stroke-width="2" stroke-miterlimit="1.5" stroke-linecap="round" stroke-linejoin="round"/>
    <path d="M29.6999 18.9835C30.0879 18.5905 30.0838 17.9574 29.6908 17.5694C29.2978 17.1814 28.6646 17.1854 28.2766 17.5785L29.6999 18.9835ZM17.7766 28.2147C17.3886 28.6077 17.3927 29.2409 17.7857 29.6289C18.1788 30.0169 18.8119 30.0128 19.1999 29.6198L17.7766 28.2147ZM28.2766 17.5785L17.7766 28.2147L19.1999 29.6198L29.6999 18.9835L28.2766 17.5785Z" fill="black"/>
    <path d="M28.28 17.7025C28.668 17.3095 28.6639 16.6763 28.2709 16.2884C27.8779 15.9004 27.2447 15.9044 26.8567 16.2975L28.28 17.7025ZM16.3567 26.9337C15.9687 27.3267 15.9728 27.9599 16.3658 28.3479C16.7589 28.7359 17.392 28.7318 17.78 28.3388L16.3567 26.9337ZM26.8567 16.2975L16.3567 26.9337L17.78 28.3388L28.28 17.7025L26.8567 16.2975Z" fill="black"/>
    <path d="M31.114 20.3977C31.502 20.0047 31.4979 19.3715 31.1049 18.9835C30.7118 18.5955 30.0787 18.5996 29.6907 18.9927L31.114 20.3977ZM19.1907 29.6289C18.8027 30.0219 18.8068 30.6551 19.1998 31.0431C19.5928 31.4311 20.226 31.427 20.614 31.034L19.1907 29.6289ZM29.6907 18.9927L19.1907 29.6289L20.614 31.034L31.114 20.3977L29.6907 18.9927Z" fill="black"/>
    <path d="M20.5028 31.009C20.1123 31.3995 20.1123 32.0327 20.5028 32.4232C20.8933 32.8138 21.5265 32.8138 21.917 32.4233L20.5028 31.009ZM30.8896 12.4939C31.8049 12.5956 32.422 12.9366 32.8356 13.3699C33.2576 13.812 33.5258 14.4122 33.6256 15.1133C33.8302 16.5507 33.2981 18.2138 32.293 19.2189L33.7073 20.6331C35.1771 19.1632 35.8949 16.8634 35.6057 14.8315C35.4586 13.798 35.044 12.7869 34.2824 11.989C33.5124 11.1823 32.4451 10.6544 31.1104 10.5061L30.8896 12.4939ZM32.293 19.2189C31.0556 20.4563 28.1081 23.4039 25.4699 26.042C24.1508 27.3611 22.909 28.6029 21.997 29.5148C21.541 29.9708 21.1675 30.3444 20.9079 30.6039C20.7782 30.7337 20.6769 30.835 20.608 30.9038C20.5736 30.9382 20.5473 30.9645 20.5296 30.9822C20.5208 30.9911 20.5141 30.9978 20.5096 31.0023C20.5073 31.0045 20.5057 31.0062 20.5045 31.0073C20.504 31.0079 20.5035 31.0083 20.5032 31.0086C20.5031 31.0087 20.503 31.0088 20.5029 31.0089C20.5029 31.009 20.5028 31.009 21.2099 31.7161C21.917 32.4233 21.9171 32.4232 21.9171 32.4231C21.9172 32.4231 21.9173 32.423 21.9175 32.4228C21.9177 32.4225 21.9182 32.4221 21.9187 32.4216C21.9199 32.4204 21.9215 32.4187 21.9238 32.4165C21.9283 32.412 21.935 32.4053 21.9438 32.3965C21.9615 32.3788 21.9878 32.3524 22.0222 32.318C22.0911 32.2492 22.1924 32.1479 22.3221 32.0182C22.5817 31.7586 22.9552 31.3851 23.4112 30.9291C24.3232 30.0171 25.565 28.7753 26.8841 27.4563C29.5223 24.8181 32.4698 21.8705 33.7073 20.6331L32.293 19.2189ZM31.1104 10.5061C29.024 10.2743 27.8618 9.41184 27.5345 8.46069C27.2121 7.52378 27.5003 5.91395 29.7071 3.70711L28.2929 2.29289C25.9035 4.68224 24.9417 7.07241 25.6433 9.11145C26.3401 11.1363 28.476 12.2257 30.8896 12.4939L31.1104 10.5061Z" fill="black"/>
</svg>