<svg width="48" height="48" viewBox="0 0 48 48" fill="none" xmlns="http://www.w3.org/2000/svg">
    <path d="M5.98931 36.0023H13.4893V31.5022H4.03931C2.63981 31.5022 1.48931 30.3517 1.48931 28.9522V20.5522C1.48931 19.1528 2.63981 18.0023 4.03931 18.0023H13.4893V9.75225C13.4893 8.51775 14.5048 7.50225 15.7393 7.50225H23.8093C24.8038 7.49475 25.6888 8.15325 25.9693 9.10725L26.4343 10.6073L26.9893 10.5023L34.1293 7.65225L34.6693 7.50225V7.32225C34.5568 7.05525 34.4983 6.76875 34.4983 6.47925C34.4983 5.61075 35.0233 4.82325 35.8243 4.48725L37.1143 3.94725C33.2293 1.43175 28.6993 0.09375 24.0703 0.09375C10.9048 0.09375 0.0703125 10.9268 0.0703125 24.0938C0.0703125 28.5368 1.30481 32.8942 3.63431 36.6772C4.34231 36.2393 5.15681 36.0052 5.98931 36.0023Z" fill="#FCE303"/>
    <path d="M44.73 35.7492C43.605 36.8757 42.0765 37.5087 40.485 37.5087C38.8935 37.5087 37.365 36.8757 36.24 35.7492L44.73 27.2592C46.1145 28.6512 46.7325 30.6372 46.38 32.5692C49.4745 24.5562 48.0165 15.4662 42.57 8.82422L46.32 23.8242C46.3425 24.0087 46.3425 24.1947 46.32 24.3792C46.3245 25.1847 45.87 25.9242 45.15 26.2842C44.838 26.4507 44.49 26.5392 44.136 26.5392C43.266 26.5392 42.4785 26.0097 42.15 25.2042L36.465 11.6142L35.985 11.8392L29.535 18.4542L28.83 18.6642L29.985 22.5042V28.9542C29.985 30.3537 28.8345 31.5042 27.435 31.5042H19.485V36.0042H26.985C29.454 36.0042 31.485 38.0352 31.485 40.5042C31.485 42.9732 29.454 45.0042 26.985 45.0042H12.375C15.927 46.9647 19.9185 47.9937 23.9745 47.9937C32.8935 47.9937 41.106 43.0212 45.24 35.1192C45.084 35.3412 44.9145 35.5512 44.73 35.7492Z" fill="#FCE303"/>
    <path d="M27 45C29.4853 45 31.5 42.9853 31.5 40.5C31.5 38.0147 29.4853 36 27 36C24.5147 36 22.5 38.0147 22.5 40.5C22.5 42.9853 24.5147 45 27 45Z" stroke="black" stroke-width="2" stroke-linecap="round" stroke-linejoin="round"/>
    <path d="M6 45C8.48528 45 10.5 42.9853 10.5 40.5C10.5 38.0147 8.48528 36 6 36C3.51472 36 1.5 38.0147 1.5 40.5C1.5 42.9853 3.51472 45 6 45Z" stroke="black" stroke-width="2" stroke-linecap="round" stroke-linejoin="round"/>
    <path d="M27.0056 45H6.14062" stroke="black" stroke-width="2" stroke-linecap="round" stroke-linejoin="round"/>
    <path d="M20.25 40.5H12.75" stroke="black" stroke-width="2" stroke-linejoin="bevel"/>
    <path d="M27.0056 36H6.14062" stroke="black" stroke-width="2" stroke-linecap="round" stroke-linejoin="round"/>
    <path d="M13.5 36V31.5" stroke="black" stroke-width="2" stroke-linejoin="round"/>
    <path d="M19.5 36V31.5" stroke="black" stroke-width="2" stroke-linejoin="round"/>
    <path d="M13.5 18H4.05C2.6505 18 1.5 19.1505 1.5 20.55V28.95C1.5 30.3495 2.6505 31.5 4.05 31.5H27.45C28.8495 31.5 30 30.3495 30 28.95V22.5L13.5 18V18Z" stroke="black" stroke-width="2" stroke-linejoin="bevel"/>
    <path d="M30 22.5L25.98 9.105C25.695 8.154 24.813 7.4985 23.82 7.5H15.75C14.5155 7.5 13.5 8.5155 13.5 9.75V17.25" stroke="black" stroke-width="2" stroke-linecap="round" stroke-linejoin="round"/>
    <path d="M5.99994 17V14.35C6.00394 13.9067 5.79395 13.4817 5.41996 13.1667L4 12" stroke="black" stroke-width="2" stroke-linejoin="bevel"/>
    <path d="M19.5 7.5V19.5" stroke="black" stroke-width="2" stroke-linejoin="round"/>
    <path d="M46.3268 23.8211L41.5418 4.68108C41.3183 3.71058 40.4467 3.01758 39.4522 3.01758C39.1702 3.01758 38.8913 3.07308 38.6318 3.18108L35.7367 4.38108C34.9327 4.71108 34.4062 5.49708 34.4062 6.36558C34.4062 6.65808 34.4662 6.94758 34.5817 7.21608L42.2768 25.2161C42.6053 26.0216 43.3928 26.5511 44.2628 26.5511C44.6168 26.5511 44.9648 26.4626 45.2768 26.2961C46.1708 25.8296 46.6118 24.7871 46.3268 23.8211V23.8211Z" stroke="black" stroke-width="2" stroke-linecap="round" stroke-linejoin="round"/>
    <path d="M35.9747 11.8359L29.5547 18.4509" stroke="black" stroke-width="2" stroke-linecap="round" stroke-linejoin="round"/>
    <path d="M27 10.5023L34.14 7.65234" stroke="black" stroke-width="2" stroke-linecap="round" stroke-linejoin="round"/>
    <path d="M36.1641 35.49C37.2906 36.615 38.8176 37.248 40.4091 37.248C43.7031 37.248 46.4136 34.539 46.4136 31.245C46.4136 29.6535 45.7806 28.125 44.6541 27L36.1641 35.49Z" stroke="black" stroke-width="2" stroke-linejoin="bevel"/>
    <path d="M36.1785 35.4871L33.5625 32.8711" stroke="black" stroke-width="2" stroke-miterlimit="1.5" stroke-linejoin="round"/>
</svg>